<?xml version="1.0" standalone="no"?><!DOCTYPE svg PUBLIC "-//W3C//DTD SVG 1.1//EN" "http://www.w3.org/Graphics/SVG/1.1/DTD/svg11.dtd"><svg t="1583747973352" class="icon" viewBox="0 0 1024 1024" version="1.1" xmlns="http://www.w3.org/2000/svg" p-id="5412" xmlns:xlink="http://www.w3.org/1999/xlink" width="128" height="128"><defs><style type="text/css"></style></defs><path d="M256.77824 763.16672s-1.4336-10.17856 2.58048-21.07392c4.608-12.51328 14.90944-26.15296 17.6128-29.40928 5.03808-6.0416 52.89984-45.71136 77.7216-56.5248 9.1136-3.97312 62.99648-21.99552 78.1312-35.1232 15.1552-13.1072 21.05344-39.19872 2.8672-56.36096-18.14528-17.16224-51.0976-89.33376-51.0976-89.33376s-35.18464-131.74784 39.75168-185.1392c27.01312-20.41856 56.03328-29.4912 79.50336-29.4912 27.2384 0 56.68864 6.0416 72.704 14.1312 28.99968 14.62272 46.34624 35.57376 60.80512 66.3552 17.408 37.08928 13.37344 89.4976 5.79584 117.84192-7.8848 29.55264-27.99616 76.22656-56.77056 108.032-28.93824 31.96928 1.24928 57.0368 8.82688 59.55584 34.77504 11.59168 96.58368 38.23616 128.1024 63.95904 15.29856 12.4928 34.73408 31.58016 41.73824 50.11456 2.9696 7.84384 1.82272 15.64672 2.27328 21.4016l-510.54592 1.06496z m617.43104 219.72992H656.83456c-20.02944 0-36.20864-16.1792-36.20864-36.22912 0-20.02944 16.1792-36.22912 36.20864-36.22912h217.37472a36.2496 36.2496 0 0 0 36.2496-36.22912v-181.1456a36.18816 36.18816 0 1 1 72.45824 0l-0.02048 181.1456a108.81024 108.81024 0 0 1-108.68736 108.68736z m-543.41632 0H149.64736A108.81024 108.81024 0 0 1 40.96 874.20928v-181.1456a36.20864 36.20864 0 1 1 72.45824 0v181.1456a36.2496 36.2496 0 0 0 36.22912 36.2496h181.1456a36.22912 36.22912 0 1 1 0 72.43776zM77.18912 367.02208A36.2496 36.2496 0 0 1 40.96 330.752V149.66784A108.81024 108.81024 0 0 1 149.64736 40.96h181.1456a36.2496 36.2496 0 0 1 0 72.45824H149.64736c-19.968 0-36.22912 16.26112-36.22912 36.22912v181.1456a36.2496 36.2496 0 0 1-36.22912 36.22912z m869.4784 0a36.20864 36.20864 0 0 1-36.22912-36.2496V149.66784a36.2496 36.2496 0 0 0-36.22912-36.2496H656.83456a36.20864 36.20864 0 1 1 0-72.43776h217.37472a108.81024 108.81024 0 0 1 108.68736 108.68736v181.1456c0 19.98848-16.1792 36.22912-36.22912 36.22912z" p-id="5413"></path></svg>