<?xml version="1.0" standalone="no"?><!DOCTYPE svg PUBLIC "-//W3C//DTD SVG 1.1//EN" "http://www.w3.org/Graphics/SVG/1.1/DTD/svg11.dtd"><svg t="1583747836135" class="icon" viewBox="0 0 1024 1024" version="1.1" xmlns="http://www.w3.org/2000/svg" p-id="3496" xmlns:xlink="http://www.w3.org/1999/xlink" width="128" height="128"><defs><style type="text/css"></style></defs><path d="M642.432 571.818667l-202.410667 116.096C409.258667 705.578667 384 691.157333 384 655.786667V423.68c0-35.328 25.258667-49.749333 56.021333-32.128l202.410667 116.138667c30.890667 17.664 30.890667 46.506667 0 64.170666M921.514667 128H102.485333a38.656 38.656 0 0 0-38.485333 38.826667V899.84c0 21.461333 17.194667 38.869333 38.485333 38.869333h819.029334a38.698667 38.698667 0 0 0 38.485333-38.869333V166.826667a38.656 38.656 0 0 0-38.485333-38.826667" p-id="3497"></path></svg>